<svg width="23" height="960" viewBox="0 0 23 960" fill="none" xmlns="http://www.w3.org/2000/svg">
<g clip-path="url(#clip0_2815_125515)">
<path d="M5.87169 806.051L4.34936 804.745L1.89495 806.851V802.625L4.34936 804.745L5.90278 803.412V800.973L-0.792461 795.228L-0.776935 795.215H-0.792461L15.9944 780.939L6.56517 772.849L6.53411 698.522L8.66228 696.683L3.26197 692.177L6.51858 689.498L6.54963 640.424L2.20562 636.825L2.20562 615.486L11.5572 607.463V604.291L11.4485 584.471L16 580.566L9.16495 574.702L5.6853 571.729L5.6853 408.1L3.24643 406.007L-0.823524 409.499L-0.823524 402.515L3.24643 406.007L5.6853 403.915L5.6853 311.562L-0.823524 305.751L-0.808021 305.738L-0.823524 305.725L11.5417 295.595L11.5417 287.398L5.87169 282.547L5.87169 224.5H-7L-7 1844.5H5.90278L5.87169 806.051ZM7.87563 604.37V605.477H6.60182V604.37H7.87563ZM5.31246 604.37V605.477H4.03868V604.37H5.31246ZM7.87563 595.854V596.96H4.03868V595.854H7.87563ZM7.87563 591.642V592.748H6.60182V591.642H7.87563ZM3.0445 346.03V349.322H-0.792461L-0.792461 346.03H3.0445ZM3.0445 335.034V336.127H-0.792461V335.034H3.0445ZM3.0445 327.343V328.436H-0.792461V327.343H3.0445ZM3.0445 325.677V326.783H-0.792461L-0.792461 325.677H3.0445Z" fill="#FEFB01"/>
<path d="M5.87169 -357.051L4.34936 -355.745L1.89495 -357.851V-353.625L4.34936 -355.745L5.90278 -354.412V-351.973L-0.792461 -346.228L-0.776935 -346.215H-0.792461L15.9944 -331.939L6.56517 -323.849L6.53411 20.4775L8.66228 22.3167L3.26197 26.8225L6.51858 29.5023L6.54963 78.5757L2.20562 82.175L2.20562 103.514L11.5572 111.537L11.5572 114.709L11.4485 134.529L16 138.434L9.16495 144.298L5.6853 147.271L5.6853 -499.1L3.24643 -497.007L-0.823524 -500.499L-0.823524 -493.515L3.24643 -497.007L5.6853 -494.915L5.6853 -402.562L-0.823524 -396.751L-0.808021 -396.738L-0.823524 -396.725L11.5417 -386.595L11.5417 -378.398L5.87169 -373.547L5.87169 224.5H-7L-7 -1395.5H5.90278L5.87169 -357.051ZM7.87563 114.63V113.523H6.60182V114.63H7.87563ZM5.31246 114.63V113.523H4.03868V114.63H5.31246ZM7.87563 123.146V122.04H4.03868V123.146H7.87563ZM7.87563 127.358V126.252H6.60182V127.358H7.87563ZM3.0445 -437.03V-440.322H-0.792461L-0.792461 -437.03H3.0445ZM3.0445 -426.034L3.0445 -427.127H-0.792461V-426.034H3.0445ZM3.0445 -418.343V-419.436H-0.792461L-0.792461 -418.343H3.0445ZM3.0445 -416.677V-417.783H-0.792461V-416.677H3.0445Z" fill="#FEFB01"/>
</g>
<defs>
<clipPath id="clip0_2815_125515">
<rect width="1920" height="23" fill="white" transform="matrix(0 -1 -1 0 23 1844.5)"/>
</clipPath>
</defs>
</svg>
